<svg id="Layer_1" data-name="Layer 1" xmlns="http://www.w3.org/2000/svg" xmlns:xlink="http://www.w3.org/1999/xlink" viewBox="0 0 642.44 127.69"><defs><style>.cls-1{fill:url(#linear-gradient);}.cls-2{fill:url(#linear-gradient-2);}.cls-3,.cls-4{fill:#fff;}.cls-4{fill-rule:evenodd;}</style><linearGradient id="linear-gradient" x1="149.92" y1="80.7" x2="150.64" y2="-47" gradientTransform="matrix(1, 0, 0, -1, 0, 80.63)" gradientUnits="userSpaceOnUse"><stop offset="0" stop-color="#b99985"/><stop offset="0.26" stop-color="#d29a50"/><stop offset="0.48" stop-color="#d06e18"/><stop offset="0.77" stop-color="#cb513f"/><stop offset="1" stop-color="#a42121"/></linearGradient><linearGradient id="linear-gradient-2" x1="62.35" y1="80.2" x2="63.07" y2="-47.49" xlink:href="#linear-gradient"/></defs><path class="cls-1" d="M125.41,76.62h50.16v51.07H125.41Z"/><path class="cls-2" d="M112.87,0,0,114.92v12.77H50.16V76.62h75.25V0Z"/><path class="cls-3" d="M568.83,24H551.26V41.07h17.57Z"/><path class="cls-3" d="M463.19,36.08h-1.95L436.4,61.31v4.51h12.44v38.83c0,7.15,2.09,12.93,6,16.93s9.6,6.11,16.57,6.11c5,0,8.82-.9,11.49-2.3l.43-.23V111.32l-1.28.93a13.34,13.34,0,0,1-7.67,2c-4,0-6.79-.93-8.54-2.72s-2.66-4.6-2.66-8.7V65.82h20.15V52.88H463.19Z"/><path class="cls-3" d="M402.88,51.26c-6.59,0-13.07,1.8-17.92,5.52a20.5,20.5,0,0,0-8.07,16.93c0,7.26,3,12,7.33,15.1s9.84,4.7,15.08,5.86c6.14,1.33,15.36,3.17,15.36,11,0,7-7.26,9.07-13.12,9.07-8.63,0-16.75-4-23.16-9.81L377,103.72v16.21l.33.24a40.9,40.9,0,0,0,24,7.52c7.32,0,14.17-1.91,19.21-5.76a20.88,20.88,0,0,0,8.26-17.28c0-6.73-2.59-11.46-6.95-14.87s-10.3-5.42-17.06-7c-5.39-1.43-13.91-3.61-13.91-10.56,0-6.26,7.1-8.19,12.23-8.19,7.45,0,14.68,3.57,21,8.66l1.32,1.06V58.26L425.1,58A40.23,40.23,0,0,0,402.88,51.26Z"/><path class="cls-4" d="M612.46,51.26a38.28,38.28,0,0,0-25.25,9.16l-.3.24V76.13l1.35-1.24c7.47-6.84,14.24-10.54,23.9-10.54,5.2,0,9.26,1.33,12,3.65a12.55,12.55,0,0,1,4.23,10v1.09L607.88,82.5c-13.18,2.18-24.67,9.42-24.67,23.91,0,12.27,9.59,21.28,22.58,21.28A31,31,0,0,0,628.84,118v8.06h13.6V78.87c0-8.5-2.72-15.43-7.9-20.24S621.86,51.26,612.46,51.26Zm-2.23,43.57,18.31-3.22v5.08c0,10.54-8.3,18.21-20.38,18.21-5.5,0-10.6-3.35-10.6-9.22,0-7,6.72-9.75,12.67-10.85Z"/><path class="cls-3" d="M534.81,51.7c-8.37,0-17,4.37-21.27,11.21v-10h-14v73.19h14.2V91.24c0-7.61,2-13.93,5.51-18.34A18.71,18.71,0,0,1,534.37,66c1.47,0,4.36.29,4.36.29V52S536.14,51.7,534.81,51.7Z"/><path class="cls-3" d="M567.22,52.88H552.87v73.19h14.35Z"/><path class="cls-4" d="M313.74,23.94l-42.4,102.12h15.38l11.1-27.34h45l11.1,27.34h15.67L327.35,23.94Zm23.69,61.3H303.21l17-42.54Z"/></svg>