<svg width="24" height="36" viewBox="0 0 24 36" fill="none" xmlns="http://www.w3.org/2000/svg">
<path d="M4.65 19.5C3.16055 18.0401 2.13963 16.1696 1.71741 14.1272C1.29519 12.0847 1.4908 9.96276 2.2793 8.03191C3.0678 6.10105 4.41346 4.44876 6.14471 3.28571C7.87596 2.12265 9.91436 1.50153 12 1.50153C14.0857 1.50153 16.124 2.12265 17.8553 3.28571C19.5865 4.44876 20.9322 6.10105 21.7207 8.03191C22.5092 9.96276 22.7048 12.0847 22.2826 14.1272C21.8604 16.1696 20.8395 18.0401 19.35 19.5M12 24V30M12 24C13.2426 24 14.25 22.9927 14.25 21.75M12 24C10.7574 24 9.75 22.9927 9.75 21.75M12 30C10.7574 30 9.75 31.0074 9.75 32.25C9.75 33.4927 10.7574 34.5 12 34.5C13.2426 34.5 14.25 33.4927 14.25 32.25C14.25 31.0074 13.2426 30 12 30ZM3.75 27.75V24.75L9.75 21.75M3.75 27.75C2.50736 27.75 1.5 28.7574 1.5 30C1.5 31.2427 2.50736 32.25 3.75 32.25C4.99264 32.25 6 31.2427 6 30C6 28.7574 4.99264 27.75 3.75 27.75ZM9.75 21.75C9.75 20.5074 10.7574 19.5 12 19.5C13.2426 19.5 14.25 20.5074 14.25 21.75M20.25 27.75V24.75L14.25 21.75M20.25 27.75C19.0074 27.75 18 28.7574 18 30C18 31.2427 19.0074 32.25 20.25 32.25C21.4926 32.25 22.5 31.2427 22.5 30C22.5 28.7574 21.4926 27.75 20.25 27.75ZM16.5 12C16.5 14.4853 14.4853 16.5 12 16.5C9.51472 16.5 7.5 14.4853 7.5 12C7.5 9.51474 9.51472 7.50003 12 7.50003C14.4853 7.50003 16.5 9.51474 16.5 12Z" stroke="url(#paint0_linear_3416_225)" stroke-width="1.5" stroke-miterlimit="10"/>
<defs>
<linearGradient id="paint0_linear_3416_225" x1="1.5" y1="34.5001" x2="24.8752" y2="32.7217" gradientUnits="userSpaceOnUse">
<stop stop-color="#EA9B57"/>
<stop offset="1" stop-color="#CB513F"/>
</linearGradient>
</defs>
</svg>
