<svg width="221" height="38" viewBox="0 0 221 38" fill="none" xmlns="http://www.w3.org/2000/svg">
<path d="M25.1939 28.4624C25.3632 30.6996 24.6778 32.8779 23.2544 34.6134C21.7952 36.3921 19.7353 37.4926 17.4548 37.7123C15.4783 37.9019 13.528 37.2766 11.964 35.9492C10.4202 34.6398 9.4665 32.8287 9.27815 30.8508L14.7368 30.3263C14.7869 30.8496 15.0634 31.3597 15.4962 31.7269C15.7441 31.937 16.2603 32.2802 16.9327 32.2154C17.7552 32.1362 18.4991 31.7389 19.0248 31.098C19.5517 30.4559 19.7985 29.6422 19.7186 28.8177C19.6006 27.5743 19.0069 26.4557 18.0461 25.6684C17.1174 24.9063 15.9635 24.5954 14.7869 24.6854C11.2296 24.9579 7.49595 31.2157 7.49595 31.2157L0 31.7906C0 31.7906 6.09165 19.8187 14.1956 19.197C16.8456 18.9942 19.4361 19.6867 21.5103 21.3885C23.6168 23.1168 24.9186 25.5688 25.1772 28.2932C25.182 28.3496 25.188 28.406 25.1916 28.4624H25.1939Z" fill="url(#paint0_linear_8243_489)"/>
<path d="M8.35904 23.8837C6.34915 22.9128 4.81849 21.2265 4.03766 19.1178C3.23656 16.9562 3.32001 14.6099 4.2725 12.512C5.09744 10.6937 6.61141 9.30626 8.53428 8.60535C10.4333 7.91405 12.467 7.98726 14.2623 8.81298L11.9842 13.8346C11.5098 13.6161 10.9328 13.6029 10.3999 13.7962C10.0947 13.9078 9.54161 14.1862 9.26027 14.8043C8.91694 15.5616 8.88714 16.4078 9.17563 17.1879C9.46412 17.968 10.0411 18.5897 10.7897 18.933C11.9175 19.4514 13.1775 19.4934 14.3351 19.0494C15.4544 18.6209 16.2996 17.77 16.8099 16.6994C18.3536 13.4613 14.8381 7.07752 14.8381 7.07752L18.0914 0.254456C18.0914 0.254456 25.3441 11.5518 21.8262 18.9282C20.6759 21.3405 18.7852 23.2524 16.2841 24.2102C13.7438 25.1823 10.9841 25.0923 8.51163 23.9557C8.46037 23.9317 8.40911 23.9077 8.35904 23.8837Z" fill="url(#paint1_linear_8243_489)"/>
<path d="M20.7152 11.4942C22.5546 10.228 24.7719 9.73593 26.9761 10.1092C29.2364 10.492 31.2129 11.7378 32.5421 13.6161C33.6937 15.2448 34.1312 17.2575 33.7711 19.2846C33.4171 21.2853 32.3358 23.0232 30.7289 24.1754L27.5484 19.6783C27.9727 19.3734 28.2744 18.8765 28.3733 18.3161C28.4305 17.9944 28.4675 17.3727 28.0753 16.8182C27.596 16.1401 26.8832 15.6913 26.0678 15.5532C25.2524 15.4152 24.4286 15.6072 23.7587 16.0873C22.7489 16.811 22.0837 17.8888 21.8859 19.1202C21.6951 20.3108 22.0039 21.4726 22.6703 22.4531C24.6837 25.4188 31.9329 25.5448 31.9329 25.5448L36.1756 31.793C36.1756 31.793 22.8312 32.4675 18.2452 25.7128C16.7443 23.5033 16.0457 20.8989 16.4725 18.2393C16.9064 15.5388 18.3644 13.1769 20.5781 11.589C20.6234 11.5566 20.6699 11.5242 20.7164 11.4918L20.7152 11.4942Z" fill="url(#paint2_linear_8243_489)"/>
<path d="M201.167 20.9864V24.6346H221V31.8259H189.923V5.51636H220.057V12.7076H201.167V16.0051H217.543V20.9864H201.167Z" fill="white"/>
<path d="M166.674 16.3208L174.007 5.51636H185.949V31.8259H174.705V16.6365L166.674 28.2478L166.639 28.0022V28.2478L158.643 16.4962V31.8259H147.4V5.51636H159.342L166.674 16.3208Z" fill="white"/>
<path d="M134.828 5.51636L145.862 31.8259H132.768L131.092 27.7216H119.534L117.649 31.8259H108.43L119.814 5.51636H134.828ZM125.575 11.9008L121.35 21.7581H129.486L125.575 11.9008Z" fill="white"/>
<path d="M90.816 5.51636V24.6346H107.577V31.8259H79.5724V5.51636H90.816Z" fill="white"/>
<path d="M77.0429 5.51636V12.7076H57.9428V17.1627H75.0525V24.0032H57.9428V31.8259H46.6992V5.51636H77.0429Z" fill="white"/>
<defs>
<linearGradient id="paint0_linear_8243_489" x1="-7.77925e-06" y1="1.54699" x2="4.44862" y2="40.113" gradientUnits="userSpaceOnUse">
<stop stop-color="#EA9B57"/>
<stop offset="1" stop-color="#CB513F"/>
</linearGradient>
<linearGradient id="paint1_linear_8243_489" x1="-7.77925e-06" y1="1.54699" x2="4.44862" y2="40.113" gradientUnits="userSpaceOnUse">
<stop stop-color="#EA9B57"/>
<stop offset="1" stop-color="#CB513F"/>
</linearGradient>
<linearGradient id="paint2_linear_8243_489" x1="-7.77925e-06" y1="1.54699" x2="4.44862" y2="40.113" gradientUnits="userSpaceOnUse">
<stop stop-color="#EA9B57"/>
<stop offset="1" stop-color="#CB513F"/>
</linearGradient>
</defs>
</svg>
