<svg width="36" height="31" viewBox="0 0 36 31" fill="none" xmlns="http://www.w3.org/2000/svg">
<path d="M17.25 11.9993V12.7493H18.75V11.9993H17.25ZM23.25 8.25002V9.00002H24.75V8.25002H23.25ZM24 5.62502H24.75V5.20938L24.3976 4.98905L24 5.62502ZM18 1.87427L18.3976 1.2383L17.9974 0.98817L17.5987 1.24063L18 1.87427ZM12 5.67377L11.5987 5.04013L11.25 5.26097V5.67377H12ZM11.25 8.25002V9.00002H12.75V8.25002H11.25ZM7.5 22.6875L7.1025 23.3235L8.25 24.0407V22.6875H7.5ZM1.5 18.9375H0.75V19.3532L1.1025 19.5735L1.5 18.9375ZM1.5 12.2363L1.09875 11.6026L0.75 11.8235V12.2363H1.5ZM7.5 8.43677L7.89756 7.8008L7.49742 7.55067L7.09875 7.80313L7.5 8.43677ZM13.5 12.1875L13.8975 12.8235L14.915 12.1876L13.8976 11.5516L13.5 12.1875ZM28.5 22.6875H27.75V24.0407L28.8975 23.3235L28.5 22.6875ZM34.5 18.9375L34.8975 19.5735L35.25 19.3532V18.9375H34.5ZM34.5 12.1875H35.25V11.7719L34.8976 11.5516L34.5 12.1875ZM28.5 8.43677L28.8976 7.8008L28.4974 7.55067L28.0987 7.80313L28.5 8.43677ZM22.5 12.2363L22.0987 11.6026L21.085 12.2446L22.1062 12.8746L22.5 12.2363ZM18 29.25L17.6025 29.886L18 30.1345L18.3975 29.886L18 29.25ZM24 18.75H24.75V18.3344L24.3976 18.1141L24 18.75ZM18 14.9993L18.3976 14.3633L17.9974 14.1132L17.5987 14.3656L18 14.9993ZM12 18.7988L11.5987 18.1651L11.25 18.386V18.7988H12ZM12 25.5H11.25V25.9157L11.6025 26.136L12 25.5ZM24 25.5L24.3975 26.136L24.75 25.9157V25.5H24ZM17.25 9.37502V11.9993H18.75V9.37502H17.25ZM24.75 8.25002V5.62502H23.25V8.25002H24.75ZM24.3976 4.98905L18.3976 1.2383L17.6024 2.51023L23.6024 6.26098L24.3976 4.98905ZM17.5987 1.24063L11.5987 5.04013L12.4013 6.30741L18.4013 2.50791L17.5987 1.24063ZM11.25 5.67377V8.25002H12.75V5.67377H11.25ZM11.6025 6.26102L17.6025 10.011L18.3975 8.73902L12.3975 4.98902L11.6025 6.26102ZM18.3975 10.011L24.3975 6.26102L23.6025 4.98902L17.6025 8.73902L18.3975 10.011ZM6.75 15.9375V22.6875H8.25V15.9375H6.75ZM7.8975 22.0515L1.8975 18.3015L1.1025 19.5735L7.1025 23.3235L7.8975 22.0515ZM2.25 18.9375V12.2363H0.75V18.9375H2.25ZM1.90125 12.8699L7.90125 9.07041L7.09875 7.80313L1.09875 11.6026L1.90125 12.8699ZM7.10244 9.07273L13.1024 12.8235L13.8976 11.5516L7.89756 7.8008L7.10244 9.07273ZM13.1025 11.5515L7.1025 15.3015L7.8975 16.5735L13.8975 12.8235L13.1025 11.5515ZM7.89376 15.2992L1.89376 11.5979L1.10624 12.8746L7.10624 16.5758L7.89376 15.2992ZM27.75 15.9375V22.6875H29.25V15.9375H27.75ZM28.8975 23.3235L34.8975 19.5735L34.1025 18.3015L28.1025 22.0515L28.8975 23.3235ZM35.25 18.9375V12.1875H33.75V18.9375H35.25ZM34.8976 11.5516L28.8976 7.8008L28.1024 9.07273L34.1024 12.8235L34.8976 11.5516ZM28.0987 7.80313L22.0987 11.6026L22.9013 12.8699L28.9013 9.07041L28.0987 7.80313ZM22.1062 12.8746L28.1062 16.5758L28.8938 15.2992L22.8938 11.5979L22.1062 12.8746ZM28.8975 16.5735L34.8975 12.8235L34.1025 11.5515L28.1025 15.3015L28.8975 16.5735ZM17.25 22.5V29.25H18.75V22.5H17.25ZM24.3976 18.1141L18.3976 14.3633L17.6024 15.6352L23.6024 19.386L24.3976 18.1141ZM17.5987 14.3656L11.5987 18.1651L12.4013 19.4324L18.4013 15.6329L17.5987 14.3656ZM11.25 18.7988V25.5H12.75V18.7988H11.25ZM11.6025 26.136L17.6025 29.886L18.3975 28.614L12.3975 24.864L11.6025 26.136ZM18.3975 29.886L24.3975 26.136L23.6025 24.864L17.6025 28.614L18.3975 29.886ZM24.75 25.5V18.75H23.25V25.5H24.75ZM11.6025 19.386L17.6025 23.136L18.3975 21.864L12.3975 18.114L11.6025 19.386ZM18.3975 23.136L24.3975 19.386L23.6025 18.114L17.6025 21.864L18.3975 23.136Z" fill="url(#paint0_linear_3416_238)"/>
<defs>
<linearGradient id="paint0_linear_3416_238" x1="1.50001" y1="29.25" x2="37.6934" y2="24.0344" gradientUnits="userSpaceOnUse">
<stop stop-color="#EA9B57"/>
<stop offset="1" stop-color="#CB513F"/>
</linearGradient>
</defs>
</svg>
