<svg width="320" height="65" viewBox="0 0 320 65" fill="none" xmlns="http://www.w3.org/2000/svg">
<path d="M62.4667 38.764H87.4534V64.205H62.4667V38.764Z" fill="white"/>
<path d="M62.4667 38.764H87.4534V64.205H62.4667V38.764Z" fill="url(#paint0_linear_2011_15)"/>
<path d="M56.2201 0.602478L0 57.8447V64.205H24.9867V38.764H62.4667V0.602478H56.2201Z" fill="white"/>
<path d="M56.2201 0.602478L0 57.8447V64.205H24.9867V38.764H62.4667V0.602478H56.2201Z" fill="url(#paint1_linear_2011_15)"/>
<path d="M283.334 12.5568H274.582V21.0591H283.334V12.5568Z" fill="white"/>
<path d="M230.715 18.5738H229.743L217.369 31.1406V33.3865H223.567V52.7262C223.567 56.2878 224.605 59.1678 226.559 61.1588C228.514 63.151 231.339 64.205 234.815 64.205C237.294 64.205 239.208 63.7575 240.537 63.058L240.75 62.9456V56.0484L240.112 56.5138C239.103 57.2497 237.652 57.5372 236.291 57.5372C234.279 57.5372 232.912 57.0723 232.04 56.1813C231.167 55.2879 230.715 53.8883 230.715 51.8457V33.3865H240.75V26.9388H230.715V18.5738Z" fill="white"/>
<path d="M200.671 26.1317C197.393 26.1317 194.165 27.03 191.747 28.8837C189.316 30.7465 187.726 33.559 187.726 37.3169C187.726 40.9341 189.211 43.2719 191.377 44.8396C193.567 46.4241 196.28 47.1806 198.889 47.7594C201.951 48.4192 206.541 49.3381 206.541 53.2398C206.541 56.7393 202.926 57.7573 200.007 57.7573C195.706 57.7573 191.665 55.7599 188.47 52.8714L187.8 52.265V60.3376L187.961 60.4572C191.511 63.0863 195.954 64.205 199.933 64.205C203.576 64.205 206.989 63.2532 209.502 61.3341C212.026 59.406 213.615 56.5192 213.615 52.7262C213.615 49.3757 212.323 47.022 210.151 45.3227C208.005 43.6439 205.021 42.6196 201.653 41.8462C198.97 41.1312 194.726 40.0447 194.726 36.5832C194.726 33.4652 198.261 32.5059 200.818 32.5059C204.527 32.5059 208.129 34.2816 211.264 36.8191L211.918 37.3486V29.6204L211.741 29.5018C208.503 27.3297 204.588 26.1317 200.671 26.1317Z" fill="white"/>
<path fill-rule="evenodd" clip-rule="evenodd" d="M305.063 26.1317C299.715 26.1317 295.791 28.0096 292.487 30.6978L292.34 30.8175V38.5203L293.012 37.9037C296.731 34.4958 300.106 32.6527 304.915 32.6527C307.507 32.6527 309.526 33.3149 310.89 34.4741C312.246 35.6264 313 37.307 313 39.4449V39.988L302.784 41.6931C296.218 42.7812 290.495 46.3876 290.495 53.6067C290.495 59.7172 295.27 64.205 301.743 64.205C306.202 64.205 310.291 62.5413 313.221 59.3808V63.3978H320V39.8852C320 35.6523 318.641 32.1992 316.063 29.8069C313.489 27.4178 309.746 26.1317 305.063 26.1317ZM303.956 47.8351L313.074 46.2309V48.7638C313.074 54.0107 308.938 57.8307 302.923 57.8307C300.185 57.8307 297.643 56.1632 297.643 53.2398C297.643 49.7592 300.991 48.3851 303.954 47.8354L303.956 47.8351Z" fill="white"/>
<path d="M266.388 26.3518C262.219 26.3518 257.904 28.5287 255.795 31.9365V26.9388H248.795V63.3978H255.869V46.0489C255.869 42.2604 256.849 39.1096 258.613 36.9147C260.369 34.7296 262.926 33.4598 266.167 33.4598C266.899 33.4598 268.339 33.6066 268.339 33.6066V26.4986C268.339 26.4986 267.049 26.3518 266.388 26.3518Z" fill="white"/>
<path d="M282.532 26.9388H275.384V63.3978H282.532V26.9388Z" fill="white"/>
<path fill-rule="evenodd" clip-rule="evenodd" d="M156.271 12.528L135.155 63.3902H142.814L148.344 49.7741H170.757L176.288 63.3902H184.093L163.05 12.528H156.271ZM168.074 43.06H151.026L159.516 21.8723L168.074 43.06Z" fill="white"/>
<defs>
<linearGradient id="paint0_linear_2011_15" x1="69.0374" y1="0.602478" x2="69.3958" y2="64.206" gradientUnits="userSpaceOnUse">
<stop stop-color="#B99985"/>
<stop offset="0.259829" stop-color="#D29A50"/>
<stop offset="0.476861" stop-color="#D06E18"/>
<stop offset="0.766321" stop-color="#CB513F"/>
<stop offset="0.995979" stop-color="#A42121"/>
</linearGradient>
<linearGradient id="paint1_linear_2011_15" x1="69.0374" y1="0.602478" x2="69.3958" y2="64.206" gradientUnits="userSpaceOnUse">
<stop stop-color="#B99985"/>
<stop offset="0.259829" stop-color="#D29A50"/>
<stop offset="0.476861" stop-color="#D06E18"/>
<stop offset="0.766321" stop-color="#CB513F"/>
<stop offset="0.995979" stop-color="#A42121"/>
</linearGradient>
</defs>
</svg>
