<svg width="320" height="64" viewBox="0 0 320 64" fill="none" xmlns="http://www.w3.org/2000/svg">
<path d="M62.4667 38.1615H87.4534V63.6025H62.4667V38.1615Z" fill="black"/>
<path d="M62.4667 38.1615H87.4534V63.6025H62.4667V38.1615Z" fill="url(#paint0_linear_2011_6)"/>
<path d="M56.2201 0L0 57.2422V63.6025H24.9867V38.1615H62.4667V0H56.2201Z" fill="black"/>
<path d="M56.2201 0L0 57.2422V63.6025H24.9867V38.1615H62.4667V0H56.2201Z" fill="url(#paint1_linear_2011_6)"/>
<path d="M283.334 11.9544H274.582V20.4566H283.334V11.9544Z" fill="black"/>
<path d="M230.715 17.9713H229.743L217.369 30.5382V32.784H223.567V52.1237C223.567 55.6853 224.605 58.5653 226.559 60.5563C228.514 62.5485 231.339 63.6025 234.815 63.6025C237.294 63.6025 239.208 63.155 240.537 62.4555L240.75 62.3431V55.4459L240.112 55.9113C239.103 56.6472 237.652 56.9347 236.291 56.9347C234.279 56.9347 232.912 56.4698 232.04 55.5788C231.167 54.6854 230.715 53.2858 230.715 51.2432V32.784H240.75V26.3363H230.715V17.9713Z" fill="black"/>
<path d="M200.671 25.5292C197.393 25.5292 194.165 26.4275 191.747 28.2812C189.316 30.144 187.726 32.9565 187.726 36.7145C187.726 40.3316 189.211 42.6695 191.377 44.2371C193.567 45.8216 196.28 46.5781 198.889 47.1569C201.951 47.8167 206.541 48.7356 206.541 52.6374C206.541 56.1368 202.926 57.1549 200.007 57.1549C195.706 57.1549 191.665 55.1574 188.47 52.2689L187.8 51.6625V59.7351L187.961 59.8547C191.511 62.4838 195.954 63.6025 199.933 63.6025C203.576 63.6025 206.989 62.6507 209.502 60.7316C212.026 58.8035 213.615 55.9167 213.615 52.1237C213.615 48.7733 212.323 46.4195 210.151 44.7202C208.005 43.0414 205.021 42.0171 201.653 41.2437C198.97 40.5288 194.726 39.4422 194.726 35.9807C194.726 32.8627 198.261 31.9034 200.818 31.9034C204.527 31.9034 208.129 33.6791 211.264 36.2166L211.918 36.7461V29.0179L211.741 28.8993C208.503 26.7272 204.588 25.5292 200.671 25.5292Z" fill="black"/>
<path fill-rule="evenodd" clip-rule="evenodd" d="M305.063 25.5292C299.715 25.5292 295.791 27.4072 292.487 30.0953L292.34 30.215V37.9178L293.012 37.3012C296.731 33.8933 300.106 32.0502 304.915 32.0502C307.507 32.0502 309.526 32.7124 310.89 33.8716C312.246 35.0239 313 36.7045 313 38.8424V39.3855L302.784 41.0906C296.218 42.1788 290.495 45.7851 290.495 53.0042C290.495 59.1147 295.27 63.6025 301.743 63.6025C306.202 63.6025 310.291 61.9389 313.221 58.7783V62.7953H320V39.2827C320 35.0498 318.641 31.5967 316.063 29.2044C313.489 26.8153 309.746 25.5292 305.063 25.5292ZM303.956 47.2326L313.074 45.6284V48.1613C313.074 53.4082 308.938 57.2282 302.923 57.2282C300.185 57.2282 297.643 55.5607 297.643 52.6374C297.643 49.1567 300.991 47.7826 303.954 47.2329L303.956 47.2326Z" fill="black"/>
<path d="M266.388 25.7493C262.219 25.7493 257.904 27.9263 255.795 31.334V26.3363H248.795V62.7953H255.869V45.4464C255.869 41.6579 256.849 38.5071 258.613 36.3122C260.369 34.1272 262.926 32.8574 266.167 32.8574C266.899 32.8574 268.339 33.0041 268.339 33.0041V25.8961C268.339 25.8961 267.049 25.7493 266.388 25.7493Z" fill="black"/>
<path d="M282.532 26.3363H275.384V62.7953H282.532V26.3363Z" fill="black"/>
<path fill-rule="evenodd" clip-rule="evenodd" d="M156.271 11.9255L135.155 62.7877H142.814L148.344 49.1716H170.757L176.288 62.7877H184.093L163.05 11.9255H156.271ZM168.074 42.4575H151.026L159.516 21.2698L168.074 42.4575Z" fill="black"/>
<defs>
<linearGradient id="paint0_linear_2011_6" x1="69.0374" y1="4.1738e-08" x2="69.3958" y2="63.6035" gradientUnits="userSpaceOnUse">
<stop stop-color="#B99985"/>
<stop offset="0.259829" stop-color="#D29A50"/>
<stop offset="0.476861" stop-color="#D06E18"/>
<stop offset="0.766321" stop-color="#CB513F"/>
<stop offset="0.995979" stop-color="#A42121"/>
</linearGradient>
<linearGradient id="paint1_linear_2011_6" x1="69.0374" y1="4.1738e-08" x2="69.3958" y2="63.6035" gradientUnits="userSpaceOnUse">
<stop stop-color="#B99985"/>
<stop offset="0.259829" stop-color="#D29A50"/>
<stop offset="0.476861" stop-color="#D06E18"/>
<stop offset="0.766321" stop-color="#CB513F"/>
<stop offset="0.995979" stop-color="#A42121"/>
</linearGradient>
</defs>
</svg>
